<svg width="24" height="24" viewBox="0 0 24 24" fill="none" xmlns="http://www.w3.org/2000/svg">
<path d="M22.4881 23.7445C19.7784 23.7445 17.0854 23.0849 14.4091 21.7658C11.7327 20.4466 9.32841 18.7318 7.1962 16.6211C5.06399 14.5105 3.33157 12.1306 1.99894 9.4813C0.666315 6.83203 0 4.16628 0 1.48403C0 1.0663 0.144368 0.714533 0.433105 0.42872C0.721841 0.142907 1.07721 0 1.49921 0H6.16341C6.47436 0 6.74644 0.104432 6.97965 0.313295C7.21286 0.522158 7.36278 0.802475 7.42941 1.15425L8.32893 5.30953C8.37335 5.61733 8.3678 5.89764 8.31228 6.15048C8.25675 6.40331 8.14015 6.61767 7.96246 6.79356L4.63089 10.1244C5.87467 12.169 7.26838 13.9499 8.81201 15.4669C10.3556 16.9839 12.1047 18.2701 14.0592 19.3254L17.2242 16.0935C17.4463 15.8516 17.7018 15.6812 17.9905 15.5823C18.2792 15.4834 18.568 15.4669 18.8567 15.5328L22.8213 16.3903C23.1544 16.4562 23.4321 16.6211 23.6542 16.885C23.8763 17.1488 23.9873 17.4566 23.9873 17.8084V22.2604C23.9873 22.6782 23.843 23.0299 23.5542 23.3158C23.2655 23.6016 22.9101 23.7445 22.4881 23.7445ZM3.63141 8.31057L6.32999 5.60633L5.56373 1.97871H1.99894C1.99894 2.83615 2.13221 3.77603 2.39873 4.79836C2.66526 5.82069 3.07615 6.99143 3.63141 8.31057ZM21.9884 21.7658V18.2371L18.5569 17.5445L15.9249 20.2817C16.8356 20.6995 17.8239 21.0402 18.89 21.3041C19.9561 21.5679 20.9889 21.7218 21.9884 21.7658Z" fill="black"/>
</svg>
