<svg width="46" height="57" viewBox="0 0 46 57" fill="none" xmlns="http://www.w3.org/2000/svg">
<path d="M20.2927 31.016C21.0354 31.7174 22.0177 32.0625 23 32.0625C23.9823 32.0625 24.9622 31.7146 25.7097 31.0188L44.8764 13.2063C46.3738 11.8147 46.3738 9.5603 44.8764 8.1687C43.379 6.7771 40.9532 6.7771 39.4558 8.1687L23 23.468L6.54423 8.16926C5.04683 6.77766 2.62105 6.77766 1.12366 8.16926C-0.373739 9.56086 -0.373739 11.8153 1.12366 13.2069L20.2927 31.016ZM39.4594 29.5465L23 44.843L6.54423 29.5465C5.04683 28.1549 2.62105 28.1549 1.12366 29.5465C-0.373739 30.9381 -0.373739 33.1925 1.12366 34.5841L20.2903 52.3966C21.0354 53.0924 22.0177 53.4375 23 53.4375C23.9823 53.4375 24.9622 53.0896 25.7097 52.3938L44.8764 34.5813C46.3738 33.1897 46.3738 30.9353 44.8764 29.5437C43.379 28.1521 40.9568 28.1549 39.4594 29.5465Z" fill="#E6F1FF" fill-opacity="0.92"/>
<path d="M20.8077 30.4707L20.8077 30.4707L20.8032 30.4666L1.63422 12.6575C1.6342 12.6574 1.63417 12.6574 1.63414 12.6574C0.456072 11.5625 0.456101 9.81353 1.63422 8.71864C2.84376 7.59456 4.82398 7.59453 6.03356 8.71855C6.0336 8.71858 6.03363 8.71861 6.03366 8.71864L22.4893 24.0173L23 24.492L23.5107 24.0173L39.9664 8.71808C39.9664 8.71805 39.9664 8.71802 39.9665 8.71798C41.176 7.59397 43.1563 7.59401 44.3658 8.71808C45.5439 9.813 45.5439 11.562 44.3658 12.6569L25.1991 30.4694L25.1987 30.4698C24.6009 31.0263 23.8081 31.3125 23 31.3125C22.1897 31.3125 21.3976 31.0278 20.8077 30.4707ZM22.4894 45.3923L23 45.8669L23.5106 45.3923L39.9699 30.0959C41.1802 28.9711 43.1569 28.9696 44.3658 30.0931C45.5439 31.188 45.5439 32.937 44.3658 34.0319L25.1991 51.8444L25.1987 51.8448C24.6009 52.4013 23.8081 52.6875 23 52.6875C22.1897 52.6875 21.3958 52.4027 20.8022 51.8484L20.8009 51.8472L1.63422 34.0347C0.456072 32.9398 0.456072 31.1908 1.63422 30.0959C2.84379 28.9718 4.82409 28.9718 6.03366 30.0959L22.4894 45.3923Z" stroke="#64FFDA" stroke-opacity="0.87" stroke-width="1.5"/>
</svg>
