<svg width="38" height="32" viewBox="0 0 38 32" fill="none" xmlns="http://www.w3.org/2000/svg">
<path d="M0 32V0L38 16L0 32ZM3 27.35L30.2 16L3 4.5V12.9L15.1 16L3 19V27.35ZM3 27.35V16V4.5V12.9V19V27.35Z" fill="#64FFDA"/>
<path d="M2.5 27.35V28.1004L3.19255 27.8114L30.3925 16.4614L31.4911 16.003L30.3947 15.5395L3.19471 4.03947L2.5 3.74575V4.5V12.9V13.288V16V18.6088V19V27.35ZM3.5 16V13.5442L13.0543 15.9921L3.5 18.3609V16ZM0.5 31.247V0.75304L36.7115 16L0.5 31.247Z" stroke="#353353" stroke-opacity="0.03"/>
</svg>
