<svg width="21" height="20" viewBox="0 0 21 20" fill="none" xmlns="http://www.w3.org/2000/svg">
<path d="M9.54595 2.37467C9.83925 1.44088 11.1608 1.44087 11.454 2.37467L12.3615 5.26371C12.7542 6.51404 13.9131 7.36475 15.2236 7.36475H18.3005C19.261 7.36475 19.6691 8.58705 18.9013 9.16413L16.2967 11.1218C15.2807 11.8854 14.8562 13.2063 15.237 14.4189L16.2041 17.4981C16.4954 18.4254 15.4263 19.1811 14.6493 18.5971L12.3024 16.8332C11.2348 16.0308 9.76521 16.0308 8.69755 16.8332L6.35072 18.5971C5.57374 19.1811 4.5046 18.4254 4.79586 17.4981L5.763 14.4189C6.14385 13.2063 5.71929 11.8854 4.7033 11.1218L2.09868 9.16413C1.33087 8.58705 1.739 7.36475 2.69949 7.36475H5.77639C7.08694 7.36475 8.24582 6.51404 8.63853 5.26371L9.54595 2.37467Z" stroke="#E6F1FF" stroke-width="2"/>
</svg>
