<svg width="11" height="11" viewBox="0 0 11 11" fill="none" xmlns="http://www.w3.org/2000/svg">
<path d="M9.48103 0.221191H1.42647C0.820094 0.221191 0.328125 0.71316 0.328125 1.31954V9.3741C0.328125 9.98048 0.820094 10.4724 1.42647 10.4724H9.48103C10.0874 10.4724 10.5794 9.98048 10.5794 9.3741V1.31954C10.5794 0.71316 10.0874 0.221191 9.48103 0.221191ZM3.23417 8.28719C3.10832 8.50686 2.82687 8.58008 2.60949 8.45423C2.38982 8.32838 2.31659 8.04693 2.44245 7.82955L2.76966 7.26435C3.13807 7.15223 3.44011 7.23918 3.6758 7.52521L3.23417 8.28719ZM6.41252 7.05384H2.25024C1.99853 7.05384 1.79259 6.8479 1.79259 6.59619C1.79259 6.34449 1.99853 6.13855 2.25024 6.13855H3.41723L4.91373 3.54827L4.44464 2.73824C4.31879 2.51857 4.3943 2.23941 4.61169 2.11355C4.83136 1.9877 5.11052 2.06321 5.23637 2.2806L5.44002 2.63298L5.64368 2.2806C5.76953 2.06093 6.05098 1.9877 6.26836 2.11355C6.48803 2.23941 6.56125 2.52086 6.4354 2.73824L4.4721 6.13855H5.89309C6.35531 6.13855 6.61388 6.68086 6.41252 7.05384ZM8.65727 7.05384H7.99368L8.44218 7.82955C8.56803 8.04922 8.49252 8.32838 8.27514 8.45423C8.05547 8.58008 7.7763 8.50457 7.65045 8.28719C6.89762 6.98519 6.33472 6.00583 5.95716 5.35597C5.57503 4.69239 5.84733 4.0288 6.11963 3.80455C6.41938 4.32398 6.86788 5.10198 7.46739 6.13855H8.65727C8.90898 6.13855 9.11492 6.34449 9.11492 6.59619C9.11492 6.85018 8.90898 7.05384 8.65727 7.05384Z" fill="black"/>
</svg>
