<svg width="27" height="22" viewBox="0 0 27 22" fill="none" xmlns="http://www.w3.org/2000/svg">
<path d="M1.99894 21.1062C1.46589 21.1062 0.999472 20.9083 0.599683 20.5126C0.199894 20.1168 0 19.6551 0 19.1275V1.97871C0 1.45105 0.199894 0.989353 0.599683 0.593611C0.999472 0.19787 1.46589 0 1.99894 0H19.3231C19.8562 0 20.3226 0.19787 20.7224 0.593611C21.1222 0.989353 21.3221 1.45105 21.3221 1.97871V9.06907L26.6526 3.79252V17.3137L21.3221 12.0371V19.1275C21.3221 19.6551 21.1222 20.1168 20.7224 20.5126C20.3226 20.9083 19.8562 21.1062 19.3231 21.1062H1.99894ZM1.99894 19.1275H19.3231V1.97871H1.99894V19.1275ZM1.99894 19.1275V1.97871V19.1275Z" fill="black"/>
</svg>
